<svg width="24" height="24" viewBox="0 0 24 24" fill="none" xmlns="http://www.w3.org/2000/svg">
<path d="M3.00039 12C3.00039 12.1989 3.0794 12.3897 3.22006 12.5303C3.36071 12.671 3.55148 12.75 3.75039 12.75H18.4401L12.9698 18.2194C12.9001 18.289 12.8448 18.3718 12.8071 18.4628C12.7694 18.5539 12.75 18.6514 12.75 18.75C12.75 18.8485 12.7694 18.9461 12.8071 19.0372C12.8448 19.1282 12.9001 19.2109 12.9698 19.2806C13.0394 19.3503 13.1222 19.4056 13.2132 19.4433C13.3043 19.481 13.4018 19.5004 13.5004 19.5004C13.5989 19.5004 13.6965 19.481 13.7876 19.4433C13.8786 19.4056 13.9613 19.3503 14.031 19.2806L20.781 12.5306C20.8507 12.461 20.9061 12.3782 20.9438 12.2872C20.9815 12.1961 21.001 12.0986 21.001 12C21.001 11.9014 20.9815 11.8038 20.9438 11.7128C20.9061 11.6217 20.8507 11.539 20.781 11.4694L14.031 4.71936C13.8903 4.57863 13.6994 4.49957 13.5004 4.49957C13.3014 4.49957 13.1105 4.57863 12.9698 4.71936C12.829 4.8601 12.75 5.05097 12.75 5.24999C12.75 5.44901 12.829 5.63988 12.9698 5.78061L18.4401 11.25H3.75039C3.55148 11.25 3.36071 11.329 3.22006 11.4697C3.0794 11.6103 3.00039 11.8011 3.00039 12Z" fill="black"/>
</svg>
