<svg width="24" height="24" viewBox="0 0 24 24" fill="none" xmlns="http://www.w3.org/2000/svg">
<path d="M13.9366 12.9486L13.9363 12.9485L9.90632 11.5285L9.90632 11.5285L9.90371 11.5276C9.54816 11.4045 9.1832 11.2274 8.90534 10.9167C8.63768 10.6175 8.41016 10.1486 8.41016 9.36008C8.41016 8.08183 9.41047 7.08008 10.6002 7.08008H13.1102C14.457 7.08008 15.5802 8.21885 15.5802 9.66008C15.5802 9.79394 15.464 9.91008 15.3302 9.91008C15.1963 9.91008 15.0802 9.79394 15.0802 9.66008C15.0802 8.54866 14.2298 7.58008 13.1102 7.58008H10.6002C9.64051 7.58008 8.91016 8.41867 8.91016 9.36008C8.91016 9.84303 8.99399 10.2405 9.24093 10.5442C9.48024 10.8386 9.81254 10.9629 10.0637 11.0516L10.064 11.0517L14.094 12.4717L14.094 12.4717L14.0966 12.4726C14.4522 12.5956 14.8171 12.7727 15.095 13.0834C15.3624 13.3825 15.5898 13.8509 15.5902 14.6384C15.581 15.9127 14.5853 16.9201 13.4002 16.9201H10.8902C9.54336 16.9201 8.42016 15.7813 8.42016 14.3401C8.42016 14.2062 8.5363 14.0901 8.67016 14.0901C8.80401 14.0901 8.92016 14.2062 8.92016 14.3401C8.92016 15.4515 9.77053 16.4201 10.8902 16.4201H13.4002C14.3598 16.4201 15.0902 15.5815 15.0902 14.6401C15.0902 14.1571 15.0063 13.7597 14.7594 13.4559C14.5201 13.1616 14.1878 13.0372 13.9366 12.9486Z" fill="white" stroke="white"/>
<path d="M12 18.25C11.8661 18.25 11.75 18.1339 11.75 18V6C11.75 5.86614 11.8661 5.75 12 5.75C12.1339 5.75 12.25 5.86614 12.25 6V18C12.25 18.1339 12.1339 18.25 12 18.25Z" fill="white" stroke="white"/>
<path d="M12 22.25C6.34614 22.25 1.75 17.6539 1.75 12C1.75 6.34614 6.34614 1.75 12 1.75C17.6539 1.75 22.25 6.34614 22.25 12C22.25 17.6539 17.6539 22.25 12 22.25ZM12 2.25C6.62386 2.25 2.25 6.62386 2.25 12C2.25 17.3761 6.62386 21.75 12 21.75C17.3761 21.75 21.75 17.3761 21.75 12C21.75 6.62386 17.3761 2.25 12 2.25Z" fill="white" stroke="white"/>
</svg>
