<svg width="24" height="24" viewBox="0 0 24 24" fill="none" xmlns="http://www.w3.org/2000/svg">
<path d="M8.32324 6.72305L9.17164 7.57145C10.7343 6.00929 13.2665 6.00929 14.8284 7.57145L15.6776 6.72305C13.6462 4.69217 10.3546 4.69169 8.32324 6.72305Z" fill="white"/>
<path d="M20.0003 10.3998C20.0003 5.9807 16.42 2.3999 12.0004 2.3999C7.58199 2.3999 4.00047 5.9807 4.00047 10.3998C3.11679 10.3998 2.40039 11.1162 2.40039 11.9999V16.7999C2.40039 17.6836 3.11679 18.4 4.00047 18.4H6.40047C6.84231 18.4 7.20039 18.0421 7.20039 17.5998V13.6C7.20039 13.1601 7.00071 12.4998 6.75663 12.1343L5.60055 10.4001C5.60055 6.86486 8.46567 3.99998 12.0006 3.99998C15.5365 3.99998 18.4007 6.86486 18.4007 10.4001L17.2444 12.1343C17.0003 12.4998 16.8004 13.1601 16.8004 13.6V17.8235C15.6277 19.1555 13.9146 19.9998 12.0004 19.9998H10.4003V21.5999H12.0004C14.6159 21.5999 16.93 20.3397 18.3894 18.4H20.0003C20.884 18.4 21.6004 17.6836 21.6004 16.7999V11.9999C21.6004 11.1162 20.884 10.3998 20.0003 10.3998ZM5.60031 16.7999H4.00023V11.9999H4.74399L5.42511 13.0218C5.49711 13.1351 5.59695 13.4665 5.60007 13.6014L5.60031 16.7999ZM20.0003 16.7999H18.4005V13.6014C18.4036 13.4663 18.5037 13.1351 18.5754 13.0218L19.2565 11.9999H20.0003V16.7999Z" fill="white"/>
</svg>
