<svg width="24" height="24" viewBox="0 0 24 24" fill="none" xmlns="http://www.w3.org/2000/svg">
<path d="M19.2934 12.4135L19.647 12.0599L19.2934 11.7064L17.2634 9.67639C17.1687 9.58165 17.1687 9.41823 17.2634 9.32349C17.3582 9.22876 17.5216 9.22876 17.6163 9.32349L17.9699 8.96994L17.6163 9.32349L20.1763 11.8835C20.2711 11.9782 20.2711 12.1416 20.1763 12.2364L17.6163 14.7964C17.565 14.8477 17.5044 14.8699 17.4399 14.8699C17.3753 14.8699 17.3147 14.8477 17.2634 14.7964C17.1687 14.7016 17.1687 14.5382 17.2634 14.4435L19.2934 12.4135Z" fill="#292D32" stroke="white"/>
<path d="M19.9298 12.3101H9.75977C9.62591 12.3101 9.50977 12.1939 9.50977 12.0601C9.50977 11.9262 9.62591 11.8101 9.75977 11.8101H19.9298C20.0636 11.8101 20.1798 11.9262 20.1798 12.0601C20.1798 12.1939 20.0636 12.3101 19.9298 12.3101Z" fill="#292D32" stroke="white"/>
<path d="M11.7598 20.25C9.30436 20.25 7.24823 19.3939 5.80707 17.9527C4.36591 16.5115 3.50977 14.4554 3.50977 12C3.50977 9.54459 4.36591 7.48847 5.80707 6.0473C7.24823 4.60614 9.30436 3.75 11.7598 3.75C11.8936 3.75 12.0098 3.86614 12.0098 4C12.0098 4.13386 11.8936 4.25 11.7598 4.25C9.50538 4.25 7.56143 5.03873 6.17996 6.4202C4.79849 7.80167 4.00977 9.74561 4.00977 12C4.00977 14.2544 4.79849 16.1983 6.17996 17.5798C7.56143 18.9613 9.50538 19.75 11.7598 19.75C11.8936 19.75 12.0098 19.8661 12.0098 20C12.0098 20.1339 11.8936 20.25 11.7598 20.25Z" fill="#292D32" stroke="white"/>
</svg>
