<svg width="24" height="24" viewBox="0 0 24 24" fill="none" xmlns="http://www.w3.org/2000/svg">
<path d="M17 21.25H7C4.81222 21.25 3.55896 20.9094 2.8248 20.1752C2.09065 19.441 1.75 18.1878 1.75 16V8C1.75 5.81222 2.09065 4.55896 2.8248 3.8248C3.55896 3.09065 4.81222 2.75 7 2.75H17C19.1878 2.75 20.441 3.09065 21.1752 3.8248C21.9094 4.55896 22.25 5.81222 22.25 8V16C22.25 18.1878 21.9094 19.441 21.1752 20.1752C20.441 20.9094 19.1878 21.25 17 21.25ZM7 3.25C6.09618 3.25 5.34091 3.29224 4.72235 3.42281C4.09822 3.55456 3.57727 3.78357 3.17859 4.18306C2.77996 4.58249 2.55213 5.10372 2.42129 5.72714C2.2916 6.34503 2.25 7.09888 2.25 8V16C2.25 16.9011 2.2916 17.655 2.42129 18.2729C2.55213 18.8963 2.77996 19.4175 3.17859 19.8169C3.57727 20.2164 4.09822 20.4454 4.72235 20.5772C5.34091 20.7078 6.09618 20.75 7 20.75H17C17.9038 20.75 18.6591 20.7078 19.2776 20.5772C19.9018 20.4454 20.4227 20.2164 20.8214 19.8169C21.22 19.4175 21.4479 18.8963 21.5787 18.2729C21.7084 17.655 21.75 16.9011 21.75 16V8C21.75 7.09888 21.7084 6.34503 21.5787 5.72714C21.4479 5.10372 21.22 4.58249 20.8214 4.18306C20.4227 3.78357 19.9018 3.55456 19.2776 3.42281C18.6591 3.29224 17.9038 3.25 17 3.25H7Z" fill="#292D32" stroke="white"/>
<path d="M19 8.25H14C13.8661 8.25 13.75 8.13386 13.75 8C13.75 7.86614 13.8661 7.75 14 7.75H19C19.1339 7.75 19.25 7.86614 19.25 8C19.25 8.13386 19.1339 8.25 19 8.25Z" fill="#292D32" stroke="white"/>
<path d="M19 12.25H15C14.8661 12.25 14.75 12.1339 14.75 12C14.75 11.8661 14.8661 11.75 15 11.75H19C19.1339 11.75 19.25 11.8661 19.25 12C19.25 12.1339 19.1339 12.25 19 12.25Z" fill="#292D32" stroke="white"/>
<path d="M19 16.25H17C16.8661 16.25 16.75 16.1339 16.75 16C16.75 15.8661 16.8661 15.75 17 15.75H19C19.1339 15.75 19.25 15.8661 19.25 16C19.25 16.1339 19.1339 16.25 19 16.25Z" fill="#292D32" stroke="white"/>
<path d="M8.50043 11.5399C7.36657 11.5399 6.44043 10.6138 6.44043 9.47992C6.44043 8.34606 7.36657 7.41992 8.50043 7.41992C9.63429 7.41992 10.5604 8.34606 10.5604 9.47992C10.5604 10.6138 9.63429 11.5399 8.50043 11.5399ZM8.50043 7.91992C7.64429 7.91992 6.94043 8.62378 6.94043 9.47992C6.94043 10.3361 7.64429 11.0399 8.50043 11.0399C9.35657 11.0399 10.0604 10.3361 10.0604 9.47992C10.0604 8.62378 9.35657 7.91992 8.50043 7.91992Z" fill="#292D32" stroke="white"/>
<path d="M9.22559 13.8519L9.22559 13.8519L9.22322 13.8516C8.7344 13.8091 8.24541 13.8091 7.75659 13.8516L7.75659 13.8516L7.75423 13.8519C6.42639 13.9737 5.36652 15.0209 5.23243 16.3496L5.23243 16.3496L5.23227 16.3512C5.21834 16.4939 5.08956 16.588 4.97043 16.5734L4.97045 16.5733L4.95846 16.5721C4.82742 16.5593 4.72419 16.4377 4.7375 16.2988C4.89415 14.7358 6.13567 13.4965 7.70393 13.3578L7.70517 13.3577C8.22476 13.3105 8.75415 13.3105 9.27375 13.3576C10.8361 13.5056 12.0859 14.7482 12.2423 16.2988C12.2556 16.4378 12.1524 16.5593 12.0214 16.5721L11.9666 16.5775C11.8547 16.562 11.7597 16.4696 11.7473 16.3488C11.613 15.0323 10.555 13.9738 9.22559 13.8519Z" fill="#292D32" stroke="white"/>
</svg>
